<svg width="29" height="24" viewBox="0 0 29 24" fill="none" xmlns="http://www.w3.org/2000/svg">
<g clip-path="url(#clip0_493_561)">
<path d="M19.3387 5.04604C19.3387 4.59586 19.4071 4.16122 19.5315 3.75138C17.1056 2.42806 13.1983 0.297123 13.1983 0.297123C12.4728 -0.0987144 11.3026 -0.0987145 10.5806 0.295137L2.26722 4.82971C1.54737 5.22212 0.959961 6.21169 0.959961 7.0368V16.9635C0.959961 17.7905 1.54519 18.7767 2.26722 19.1706L10.5806 23.7052C11.3004 24.0976 12.4731 24.099 13.1951 23.7052L21.5084 19.1706C22.2283 18.7782 22.8157 17.79 22.8157 16.9664V9.40159C20.8278 8.94804 19.3387 7.16922 19.3387 5.04604ZM13.8747 13.1794C13.8747 15.1294 12.2087 16.719 10.1493 16.719C8.08821 16.719 6.4239 15.1294 6.4239 13.1794V9.01981H7.91407V13.1794C7.91407 14.314 8.97833 15.2288 10.1493 15.2288C11.3188 15.2288 12.3846 14.314 12.3846 13.1794V9.01981H13.8747V13.1794ZM17.3518 16.4706H15.8616V9.01981H17.3518V16.4706Z" fill="url(#paint0_linear_493_561)"/>
<path d="M23.8094 0.575539C21.7945 0.575539 20.0883 1.91579 19.5317 3.75138C19.4073 4.16122 19.3389 4.59585 19.3389 5.04603C19.3389 7.16922 20.828 8.94803 22.8159 9.40159C23.136 9.47431 23.4676 9.51653 23.8094 9.51653C26.2743 9.51653 28.2799 7.51121 28.2799 5.04603C28.2799 2.58085 26.2743 0.575539 23.8094 0.575539ZM25.2995 6.03948C25.2995 6.8612 24.6311 7.52964 23.8094 7.52964C22.9876 7.52964 22.3192 6.8612 22.3192 6.03948C22.3192 5.65625 22.4684 5.31039 22.7068 5.04603C22.4684 4.78168 22.3192 4.43581 22.3192 4.05259C22.3192 3.23086 22.9876 2.56242 23.8094 2.56242C24.6311 2.56242 25.2995 3.23086 25.2995 4.05259C25.2995 4.43581 25.1504 4.78168 24.9119 5.04603C25.1504 5.31039 25.2995 5.65625 25.2995 6.03948Z" fill="white"/>
<path d="M23.8092 4.54931C24.0836 4.54931 24.3059 4.32692 24.3059 4.05259C24.3059 3.77826 24.0836 3.55587 23.8092 3.55587C23.5349 3.55587 23.3125 3.77826 23.3125 4.05259C23.3125 4.32692 23.5349 4.54931 23.8092 4.54931Z" fill="white"/>
<path d="M23.8092 6.5362C24.0836 6.5362 24.3059 6.31381 24.3059 6.03948C24.3059 5.76515 24.0836 5.54276 23.8092 5.54276C23.5349 5.54276 23.3125 5.76515 23.3125 6.03948C23.3125 6.31381 23.5349 6.5362 23.8092 6.5362Z" fill="white"/>
<path d="M23.8095 2.56243C22.9878 2.56243 22.3193 3.23087 22.3193 4.05259C22.3193 4.43581 22.4685 4.78168 22.7069 5.04603C22.4685 5.31039 22.3193 5.65626 22.3193 6.03948C22.3193 6.8612 22.9878 7.52964 23.8095 7.52964C24.6312 7.52964 25.2997 6.8612 25.2997 6.03948C25.2997 5.65626 25.1505 5.31039 24.9121 5.04603C25.1505 4.78168 25.2997 4.43581 25.2997 4.05259C25.2997 3.23087 24.6312 2.56243 23.8095 2.56243ZM23.8095 3.55587C24.0833 3.55587 24.3062 3.7785 24.3062 4.05259C24.3062 4.32668 24.0833 4.54931 23.8095 4.54931C23.5356 4.54931 23.3128 4.32668 23.3128 4.05259C23.3128 3.7785 23.5356 3.55587 23.8095 3.55587ZM23.8095 6.5362C23.5356 6.5362 23.3128 6.31357 23.3128 6.03948C23.3128 5.76539 23.5356 5.54276 23.8095 5.54276C24.0833 5.54276 24.3062 5.76539 24.3062 6.03948C24.3062 6.31357 24.0833 6.5362 23.8095 6.5362Z" fill="#F26545"/>
</g>
<defs>
<linearGradient id="paint0_linear_493_561" x1="11.8878" y1="-3.8147e-06" x2="11.8878" y2="24" gradientUnits="userSpaceOnUse">
<stop stop-color="#F05B4E"/>
<stop offset="1" stop-color="#FB9415"/>
</linearGradient>
<clipPath id="clip0_493_561">
<rect width="27.3197" height="24" fill="white" transform="translate(0.959961)"/>
</clipPath>
</defs>
</svg>
