<svg width="25" height="24" viewBox="0 0 25 24" fill="none" xmlns="http://www.w3.org/2000/svg">
<g clip-path="url(#clip0_493_557)">
<path d="M12.96 0C6.33071 0 0.959961 5.37075 0.959961 12C0.959961 18.6292 6.33071 24 12.96 24C19.5892 24 24.96 18.6292 24.96 12C24.96 5.37075 19.5892 0 12.96 0ZM7.92071 7.68C8.67446 7.68 9.26096 8.22975 9.32696 8.87925C9.39821 9.465 9.15521 9.97725 8.50721 10.2855C8.16296 10.4572 8.02646 10.4573 7.95596 10.3553C7.92071 10.2855 7.95596 10.2195 8.02571 10.1483C8.64371 9.6375 8.64371 9.2235 8.57246 8.6415C8.53721 8.26275 8.26421 8.0235 7.99046 8.0235C6.78746 8.0235 5.07671 10.6958 5.31446 12.6525C5.42021 13.4063 5.86571 14.2972 6.82271 14.2972C7.13171 14.2972 7.47596 14.1953 7.78346 14.0595C8.28371 13.7933 8.58446 13.5907 8.88146 13.2585C8.80721 12.3712 9.58421 11.2118 10.7325 11.2118C11.2485 11.2118 11.6587 11.4187 11.6932 11.7975C11.76 12.3097 11.3145 12.3795 11.178 12.3795C11.0407 12.3795 10.7992 12.3443 10.7992 12.2078C10.7685 12.0705 11.1075 12.138 11.076 11.829C11.0407 11.622 10.8337 11.556 10.6312 11.556C9.90821 11.556 9.49796 12.552 9.59996 13.1647C9.63521 13.4415 9.77096 13.716 10.0492 13.716C10.2525 13.716 10.5615 13.407 10.662 12.9623C10.7317 12.6533 11.0062 12.4462 11.2477 12.4462C11.3497 12.4462 11.4157 12.4815 11.451 12.618V12.7552C11.4202 12.8925 11.3137 13.3065 11.3497 13.407C11.3497 13.4782 11.385 13.5787 11.5207 13.5787C11.6107 13.5787 11.955 13.3988 12.2985 13.1175C12.4117 12.5273 12.5482 11.8207 12.5482 11.7622C12.5835 11.52 12.6855 11.2815 13.1655 11.2815C13.2705 11.2815 13.3372 11.3167 13.3725 11.4532V11.5905L13.2352 12.2078C13.6815 11.6258 14.3332 11.2155 14.7435 11.2155C14.9152 11.2155 15.0525 11.3167 15.0525 11.4885C15.0525 11.5905 15.0525 11.7622 14.9812 11.9347C14.8455 12.3097 14.673 12.8955 14.571 13.407C14.571 13.5442 14.6062 13.6807 14.778 13.6807C14.9497 13.6807 15.462 13.4775 15.8722 12.927L15.8805 12.9233C15.8805 12.8565 15.8722 12.7905 15.8722 12.7245C15.8722 12.3105 15.9075 11.9707 15.978 11.7285C16.0477 11.4548 16.3882 11.2162 16.5952 11.2162C16.6965 11.2162 16.8022 11.2822 16.8022 11.3842C16.8022 11.4195 16.8022 11.4893 16.767 11.5215C16.6297 11.9708 16.524 12.3803 16.524 12.7905C16.524 13.0328 16.56 13.3725 16.6297 13.5795C16.6297 13.6148 16.6605 13.6493 16.6957 13.6493C16.767 13.6493 17.247 13.2045 17.5867 12.618C17.2777 12.4147 17.106 12.0712 17.106 11.661C17.106 10.9388 17.556 10.563 17.9662 10.563C18.3105 10.563 18.5835 10.8022 18.5835 11.2823C18.5835 11.5913 18.4815 11.9355 18.3105 12.243H18.4117C18.6307 12.2512 18.846 12.1613 18.9937 12.0052C19.0263 11.9531 19.0743 11.9122 19.131 11.8883C19.467 11.4622 19.959 11.1465 20.541 11.1465C21.021 11.1465 21.4627 11.3535 21.498 11.7285C21.5677 12.2437 21.1192 12.3458 20.982 12.3458C20.8462 12.3458 20.604 12.3105 20.604 12.174C20.604 12.0375 20.9122 12.1042 20.8807 11.799C20.8455 11.592 20.6385 11.5223 20.4315 11.5223C19.7475 11.5223 19.3027 12.4125 19.4032 13.1355C19.4385 13.4085 19.575 13.7175 19.8495 13.7175C20.0565 13.7175 20.3647 13.4085 20.5012 12.9637C20.5672 12.6908 20.8455 12.4478 21.0832 12.4478C21.1882 12.4478 21.255 12.483 21.2902 12.6195C21.2902 12.6908 21.2902 12.8265 21.153 13.2728C20.9812 13.581 20.9812 13.7528 21.0172 13.89C21.048 14.163 21.1852 14.37 21.3255 14.472C21.3505 14.5038 21.3729 14.5377 21.3922 14.5732C21.3922 14.6445 21.3562 14.7142 21.255 14.7142C21.2197 14.7142 21.1882 14.7143 21.153 14.679C20.6377 14.472 20.4307 14.1277 20.364 13.7843C20.157 14.0265 19.9192 14.163 19.6417 14.163C19.1955 14.163 18.7545 13.7528 18.6847 13.2367C18.6634 13.0179 18.6887 12.7971 18.759 12.5887C18.5557 12.7177 18.3367 12.792 18.1342 12.792H17.9662C17.517 13.4437 17.0362 13.89 16.6965 14.0933C16.5794 14.1556 16.4501 14.1915 16.3177 14.1982C16.2517 14.1982 16.1467 14.163 16.1145 14.0933C16.0177 13.941 15.9585 13.7025 15.9195 13.4295C15.4387 13.9523 14.7742 14.2335 14.4667 14.2335C14.1225 14.2335 13.92 14.0265 13.8847 13.6838V13.3088C13.986 12.555 14.2635 12.1058 14.2635 11.9685C14.2615 11.9504 14.2533 11.9336 14.2403 11.9209C14.2273 11.9082 14.2103 11.9004 14.1922 11.8988C13.9545 11.8988 13.1655 12.723 13.0282 13.2735L12.9232 13.7183C12.8565 14.0265 12.5482 14.2335 12.3412 14.2335C12.2392 14.2335 12.1695 14.1982 12.138 14.0625V13.9252L12.1807 13.6912C11.7465 13.9995 11.313 14.1982 11.106 14.1982C10.7977 14.1982 10.626 14.0265 10.5952 13.7843C10.3882 14.0625 10.149 14.1982 9.84146 14.1982C9.48521 14.1982 9.14246 13.956 8.97821 13.605C8.73146 13.8817 8.45396 14.1593 8.12621 14.37C7.64621 14.679 7.09946 14.9167 6.44621 14.9167C5.86421 14.9167 5.34896 14.6078 5.07521 14.3348C4.66121 13.956 4.42346 13.374 4.38821 12.8265C4.18496 11.1472 5.21246 8.9865 6.78596 8.02575C7.16471 7.81875 7.54421 7.683 7.91921 7.683L7.92071 7.68ZM17.6902 10.9732C17.589 10.9732 17.5192 11.145 17.5192 11.3123C17.5192 11.5905 17.655 11.898 17.8275 12.0705C17.8962 11.8828 17.932 11.6846 17.9332 11.4847C17.9332 11.1458 17.796 10.974 17.6902 10.974V10.9732Z" fill="url(#paint0_linear_493_557)"/>
</g>
<defs>
<linearGradient id="paint0_linear_493_557" x1="12.96" y1="0" x2="12.96" y2="24" gradientUnits="userSpaceOnUse">
<stop stop-color="#ED4C5C"/>
<stop offset="1" stop-color="#FDA305"/>
</linearGradient>
<clipPath id="clip0_493_557">
<rect width="24" height="24" fill="white" transform="translate(0.959961)"/>
</clipPath>
</defs>
</svg>
