<svg width="17" height="17" viewBox="0 0 17 17" fill="none" xmlns="http://www.w3.org/2000/svg">
<g clip-path="url(#clip0_493_513)">
<path d="M16.8965 8.66069C16.8965 12.5267 13.3145 15.6607 8.89648 15.6607C8.10414 15.6618 7.31507 15.5589 6.54948 15.3547C5.96548 15.6507 4.62448 16.2187 2.36848 16.5887C2.16848 16.6207 2.01648 16.4127 2.09548 16.2267C2.44948 15.3907 2.76948 14.2767 2.86548 13.2607C1.64048 12.0307 0.896484 10.4207 0.896484 8.66069C0.896484 4.79469 4.47848 1.66069 8.89648 1.66069C13.3145 1.66069 16.8965 4.79469 16.8965 8.66069ZM5.89648 8.66069C5.89648 8.39547 5.79113 8.14112 5.60359 7.95358C5.41605 7.76605 5.1617 7.66069 4.89648 7.66069C4.63127 7.66069 4.37691 7.76605 4.18938 7.95358C4.00184 8.14112 3.89648 8.39547 3.89648 8.66069C3.89648 8.92591 4.00184 9.18026 4.18938 9.3678C4.37691 9.55533 4.63127 9.66069 4.89648 9.66069C5.1617 9.66069 5.41605 9.55533 5.60359 9.3678C5.79113 9.18026 5.89648 8.92591 5.89648 8.66069ZM9.89648 8.66069C9.89648 8.39547 9.79113 8.14112 9.60359 7.95358C9.41605 7.76605 9.1617 7.66069 8.89648 7.66069C8.63127 7.66069 8.37691 7.76605 8.18938 7.95358C8.00184 8.14112 7.89648 8.39547 7.89648 8.66069C7.89648 8.92591 8.00184 9.18026 8.18938 9.3678C8.37691 9.55533 8.63127 9.66069 8.89648 9.66069C9.1617 9.66069 9.41605 9.55533 9.60359 9.3678C9.79113 9.18026 9.89648 8.92591 9.89648 8.66069ZM12.8965 9.66069C13.1617 9.66069 13.4161 9.55533 13.6036 9.3678C13.7911 9.18026 13.8965 8.92591 13.8965 8.66069C13.8965 8.39547 13.7911 8.14112 13.6036 7.95358C13.4161 7.76605 13.1617 7.66069 12.8965 7.66069C12.6313 7.66069 12.3769 7.76605 12.1894 7.95358C12.0018 8.14112 11.8965 8.39547 11.8965 8.66069C11.8965 8.92591 12.0018 9.18026 12.1894 9.3678C12.3769 9.55533 12.6313 9.66069 12.8965 9.66069Z" fill="white"/>
</g>
<defs>
<clipPath id="clip0_493_513">
<rect width="16" height="16" fill="white" transform="translate(0.896484 0.66069)"/>
</clipPath>
</defs>
</svg>
