<svg width="25" height="16" viewBox="0 0 25 16" fill="none" xmlns="http://www.w3.org/2000/svg">
<path d="M22.8798 2.28001H15.5998V0.200012H22.8798V2.28001ZM24.6748 12.68C24.2151 14.0289 22.5646 15.8 19.3698 15.8C16.1729 15.8 13.5833 14.0019 13.5833 9.89801C13.5833 5.83161 16.0013 3.74121 19.2679 3.74121C22.4731 3.74121 24.4304 5.59449 24.8578 8.34425C24.9389 8.87049 24.9712 9.57977 24.9566 10.5699H16.6086C16.7438 13.9093 20.2309 14.0143 21.3801 12.68H24.6748ZM16.6814 8.52001H21.845C21.7358 6.91113 20.6635 6.21225 19.2689 6.21225C17.7443 6.21225 16.9009 7.01097 16.6814 8.52001ZM6.72457 15.7875H0V0.221852H7.23104C12.926 0.306092 13.0342 5.88361 10.0598 7.40409C13.6592 8.71449 13.7799 15.7875 6.72457 15.7875ZM3.11997 6.44001H6.84729C9.45558 6.44001 9.86949 3.32001 6.52281 3.32001H3.11997V6.44001ZM6.64657 9.56001H3.11997V12.6967H6.59457C9.77173 12.6967 9.57726 9.56001 6.64657 9.56001Z" fill="url(#paint0_linear_493_554)"/>
<defs>
<linearGradient id="paint0_linear_493_554" x1="12.48" y1="0.200012" x2="12.48" y2="15.8" gradientUnits="userSpaceOnUse">
<stop stop-color="#ED4C5C"/>
<stop offset="1" stop-color="#FDA305"/>
</linearGradient>
</defs>
</svg>
