<svg width="148" height="25" viewBox="0 0 148 25" fill="none" xmlns="http://www.w3.org/2000/svg">
<path d="M42.3062 20.3612C41.8649 20.3612 41.578 20.1565 41.4456 19.7472L36.7232 5.66939C36.7085 5.62554 36.7012 5.55975 36.7012 5.47204C36.7012 5.34047 36.7453 5.23083 36.8336 5.14312C36.9218 5.05541 37.0322 5.01155 37.1646 5.01155H39.1286C39.3198 5.01155 39.4743 5.06272 39.592 5.16505C39.7097 5.26738 39.7906 5.37702 39.8347 5.49397L43.5199 16.7211L47.2272 5.49397C47.2566 5.37702 47.3302 5.26738 47.4478 5.16505C47.5655 5.06272 47.72 5.01155 47.9113 5.01155H49.8973C50.015 5.01155 50.118 5.05541 50.2062 5.14312C50.3092 5.23083 50.3607 5.34047 50.3607 5.47204L50.3166 5.66939L45.6163 19.7472C45.4692 20.1565 45.1823 20.3612 44.7557 20.3612H42.3062Z" fill="#FDA403"/>
<path d="M50.9963 7.09471C50.8492 7.09471 50.7242 7.04355 50.6212 6.94122C50.5182 6.83889 50.4667 6.71463 50.4667 6.56844V4.9677C50.4667 4.80689 50.5182 4.67532 50.6212 4.57299C50.7242 4.47066 50.8492 4.41949 50.9963 4.41949H53.0265C53.1883 4.41949 53.3207 4.47066 53.4237 4.57299C53.5267 4.67532 53.5782 4.80689 53.5782 4.9677V6.56844C53.5782 6.71463 53.5193 6.83889 53.4017 6.94122C53.2987 7.04355 53.1736 7.09471 53.0265 7.09471H50.9963ZM51.0846 20.3612C50.9375 20.3612 50.8124 20.31 50.7095 20.2077C50.6065 20.1053 50.555 19.9811 50.555 19.8349V9.48487C50.555 9.32406 50.6065 9.1998 50.7095 9.11209C50.8124 9.00976 50.9375 8.95859 51.0846 8.95859H52.9603C53.1074 8.95859 53.2325 9.00976 53.3355 9.11209C53.4384 9.21442 53.4899 9.33868 53.4899 9.48487V19.8349C53.4899 19.9811 53.4384 20.1053 53.3355 20.2077C53.2325 20.31 53.1074 20.3612 52.9603 20.3612H51.0846Z" fill="#FDA403"/>
<path d="M58.8886 20.5804C57.7705 20.5804 56.8364 20.4123 56.0861 20.0761C55.3358 19.7399 54.7768 19.3525 54.409 18.9139C54.0559 18.4607 53.8794 18.0733 53.8794 17.7517C53.8794 17.6055 53.9235 17.4886 54.0118 17.4009C54.1148 17.3132 54.2324 17.2693 54.3648 17.2693H56.1743C56.292 17.2693 56.395 17.3278 56.4833 17.4447C56.5568 17.5032 56.7187 17.6421 56.9688 17.8614C57.2336 18.0806 57.5278 18.2561 57.8514 18.3876C58.1898 18.5046 58.5576 18.5631 58.9548 18.5631C59.5433 18.5631 60.0214 18.4534 60.3892 18.2341C60.757 18.0002 60.9408 17.6713 60.9408 17.2474C60.9408 16.955 60.8526 16.7211 60.676 16.5457C60.5142 16.3556 60.2126 16.1875 59.7713 16.0413C59.3447 15.8805 58.6974 15.7051 57.8294 15.5151C56.5789 15.2519 55.6521 14.8499 55.0489 14.309C54.4605 13.7681 54.1662 13.0518 54.1662 12.1601C54.1662 11.5753 54.3428 11.0271 54.6959 10.5155C55.0489 9.98921 55.5712 9.56527 56.2626 9.24366C56.9688 8.90743 57.8073 8.73931 58.7783 8.73931C59.7786 8.73931 60.6393 8.90012 61.3601 9.22173C62.081 9.52872 62.6253 9.9015 62.9931 10.3401C63.3756 10.7786 63.5668 11.166 63.5668 11.5022C63.5668 11.6338 63.5153 11.7508 63.4124 11.8531C63.3241 11.9408 63.2138 11.9847 63.0814 11.9847H61.4263C61.2645 11.9847 61.1394 11.9262 61.0512 11.8092C60.9482 11.7361 60.779 11.6046 60.5436 11.4145C60.323 11.2099 60.0729 11.0491 59.7934 10.9321C59.5138 10.8152 59.1755 10.7567 58.7783 10.7567C58.2339 10.7567 57.8147 10.8736 57.5204 11.1075C57.2262 11.3414 57.0791 11.6484 57.0791 12.0285C57.0791 12.2917 57.1453 12.5109 57.2777 12.6864C57.4248 12.8618 57.7117 13.0299 58.1383 13.1907C58.565 13.3369 59.2049 13.4904 60.0582 13.6512C62.7062 14.1628 64.0302 15.3104 64.0302 17.0939C64.0302 18.1318 63.5742 18.9724 62.6621 19.6156C61.7647 20.2588 60.5069 20.5804 58.8886 20.5804Z" fill="#FDA403"/>
<path d="M68.6688 20.5804C67.3154 20.5804 66.2488 20.1419 65.4691 19.2648C64.6894 18.3876 64.2995 17.1816 64.2995 15.6466V9.48487C64.2995 9.32406 64.351 9.1998 64.454 9.11209C64.557 9.00976 64.682 8.95859 64.8291 8.95859H66.8152C66.9623 8.95859 67.0873 9.00976 67.1903 9.11209C67.2933 9.21442 67.3448 9.33868 67.3448 9.48487V15.5151C67.3448 17.3132 68.1318 18.2122 69.706 18.2122C70.471 18.2122 71.0741 17.971 71.5155 17.4886C71.9715 17.0062 72.1995 16.3483 72.1995 15.5151V9.48487C72.1995 9.32406 72.251 9.1998 72.354 9.11209C72.457 9.00976 72.582 8.95859 72.7292 8.95859H74.6931C74.855 8.95859 74.98 9.00976 75.0683 9.11209C75.1712 9.1998 75.2227 9.32406 75.2227 9.48487V19.8349C75.2227 19.9811 75.1712 20.1053 75.0683 20.2077C74.98 20.31 74.855 20.3612 74.6931 20.3612H72.8616C72.7144 20.3612 72.5894 20.31 72.4864 20.2077C72.3834 20.1053 72.3319 19.9811 72.3319 19.8349V18.9358C71.5228 20.0322 70.3018 20.5804 68.6688 20.5804Z" fill="#FDA403"/>
<path d="M79.5936 20.5804C78.8433 20.5804 78.1519 20.4343 77.5193 20.1419C76.9014 19.8349 76.4086 19.4256 76.0408 18.9139C75.6877 18.4023 75.5112 17.8394 75.5112 17.2255C75.5112 16.2314 75.9157 15.4274 76.7248 14.8134C77.534 14.1994 78.6447 13.7828 80.057 13.5635L83.0802 13.1249V12.6644C83.0802 12.0358 82.9184 11.5607 82.5947 11.2391C82.271 10.9175 81.7561 10.7567 81.05 10.7567C80.5645 10.7567 80.1747 10.8444 79.8804 11.0198C79.5862 11.1953 79.3435 11.378 79.1522 11.568C78.9757 11.7435 78.858 11.8604 78.7992 11.9189C78.7403 12.0943 78.63 12.182 78.4682 12.182H76.7469C76.6145 12.182 76.4968 12.1382 76.3938 12.0504C76.3056 11.9627 76.2614 11.8458 76.2614 11.6996C76.2762 11.3341 76.4527 10.9248 76.7911 10.4716C77.1441 10.0038 77.6811 9.60182 78.402 9.26559C79.1228 8.91474 80.0129 8.73931 81.0721 8.73931C82.808 8.73931 84.0732 9.12671 84.8676 9.9015C85.662 10.6763 86.0592 11.6923 86.0592 12.9495V19.8349C86.0592 19.9811 86.0077 20.1053 85.9048 20.2077C85.8165 20.31 85.6914 20.3612 85.5296 20.3612H83.6981C83.5509 20.3612 83.4259 20.31 83.3229 20.2077C83.2199 20.1053 83.1684 19.9811 83.1684 19.8349V18.9797C82.8448 19.4475 82.3887 19.8349 81.8003 20.1419C81.2118 20.4343 80.4763 20.5804 79.5936 20.5804ZM80.3439 18.4754C81.153 18.4754 81.815 18.2122 82.3299 17.6859C82.8448 17.1597 83.1022 16.3995 83.1022 15.4054V14.9669L80.8955 15.3177C79.2037 15.5809 78.3578 16.1437 78.3578 17.0062C78.3578 17.474 78.5491 17.8394 78.9316 18.1026C79.3288 18.3511 79.7995 18.4754 80.3439 18.4754Z" fill="#FDA403"/>
<path d="M87.5657 20.3612C87.4185 20.3612 87.2935 20.31 87.1905 20.2077C87.0875 20.1053 87.036 19.9811 87.036 19.8349V5.31854C87.036 5.15774 87.0875 5.03348 87.1905 4.94577C87.2935 4.84344 87.4185 4.79227 87.5657 4.79227H89.4193C89.5811 4.79227 89.7062 4.84344 89.7944 4.94577C89.8974 5.03348 89.9489 5.15774 89.9489 5.31854V19.8349C89.9489 19.9811 89.8974 20.1053 89.7944 20.2077C89.7062 20.31 89.5811 20.3612 89.4193 20.3612H87.5657Z" fill="#FDA403"/>
<path d="M94.9397 20.3612C94.7926 20.3612 94.6675 20.31 94.5645 20.2077C94.4616 20.1053 94.4101 19.9811 94.4101 19.8349V5.55975C94.4101 5.39895 94.4542 5.26738 94.5425 5.16505C94.6455 5.06272 94.7779 5.01155 94.9397 5.01155H96.9257C97.0876 5.01155 97.22 5.06272 97.3229 5.16505C97.4259 5.26738 97.4774 5.39895 97.4774 5.55975V10.6909L102.398 5.40626C102.619 5.14312 102.906 5.01155 103.259 5.01155H105.51C105.628 5.01155 105.731 5.05541 105.819 5.14312C105.922 5.23083 105.973 5.34047 105.973 5.47204C105.973 5.57437 105.936 5.66208 105.863 5.73518L99.8607 12.3574L106.304 19.6156C106.363 19.7179 106.393 19.813 106.393 19.9007C106.393 20.0322 106.348 20.1419 106.26 20.2296C106.172 20.3173 106.069 20.3612 105.951 20.3612H103.634C103.325 20.3612 103.105 20.3027 102.972 20.1857C102.84 20.0542 102.766 19.9811 102.751 19.9665L97.4774 14.1775V19.8349C97.4774 19.9811 97.4259 20.1053 97.3229 20.2077C97.22 20.31 97.0876 20.3612 96.9257 20.3612H94.9397Z" fill="#FDA403"/>
<path d="M106.764 20.3612C106.616 20.3612 106.491 20.31 106.388 20.2077C106.285 20.1053 106.234 19.9811 106.234 19.8349V9.50679C106.234 9.34599 106.285 9.21442 106.388 9.11209C106.491 9.00976 106.616 8.95859 106.764 8.95859H108.573C108.735 8.95859 108.867 9.00976 108.97 9.11209C109.073 9.21442 109.125 9.34599 109.125 9.50679V10.4058C109.86 9.44101 110.919 8.95859 112.302 8.95859H113.229C113.391 8.95859 113.516 9.00976 113.604 9.11209C113.707 9.1998 113.759 9.32406 113.759 9.48487V11.0856C113.759 11.2318 113.707 11.3561 113.604 11.4584C113.516 11.5607 113.391 11.6119 113.229 11.6119H111.486C110.794 11.6119 110.25 11.8092 109.853 12.2039C109.456 12.5986 109.257 13.1395 109.257 13.8266V19.8349C109.257 19.9811 109.206 20.1053 109.103 20.2077C109 20.31 108.875 20.3612 108.727 20.3612H106.764Z" fill="#FDA403"/>
<path d="M118.417 20.5804C116.77 20.5804 115.46 20.1126 114.489 19.1771C113.533 18.2415 113.026 16.9112 112.967 15.1862L112.945 14.638C112.945 12.8106 113.423 11.3707 114.379 10.3181C115.35 9.26559 116.689 8.73931 118.395 8.73931C120.146 8.73931 121.492 9.26559 122.434 10.3181C123.39 11.3707 123.868 12.7741 123.868 14.5283V14.9888C123.868 15.135 123.816 15.2592 123.713 15.3616C123.61 15.4639 123.478 15.5151 123.316 15.5151H115.99V15.6905C116.019 16.5091 116.24 17.1889 116.652 17.7298C117.079 18.2561 117.66 18.5192 118.395 18.5192C119.234 18.5192 119.918 18.183 120.448 17.5105C120.58 17.3497 120.683 17.2547 120.756 17.2255C120.83 17.1816 120.955 17.1597 121.132 17.1597H123.074C123.206 17.1597 123.316 17.1962 123.405 17.2693C123.507 17.3424 123.559 17.4447 123.559 17.5763C123.559 17.9272 123.346 18.3438 122.919 18.8262C122.507 19.294 121.911 19.7033 121.132 20.0542C120.352 20.405 119.447 20.5804 118.417 20.5804ZM120.823 13.6512V13.6073C120.823 12.7448 120.602 12.0578 120.161 11.5461C119.734 11.0198 119.146 10.7567 118.395 10.7567C117.645 10.7567 117.057 11.0198 116.63 11.5461C116.203 12.0578 115.99 12.7448 115.99 13.6073V13.6512H120.823Z" fill="#FDA403"/>
<path d="M127.666 20.5804C126.916 20.5804 126.225 20.4343 125.592 20.1419C124.974 19.8349 124.481 19.4256 124.113 18.9139C123.76 18.4023 123.584 17.8394 123.584 17.2255C123.584 16.2314 123.988 15.4274 124.798 14.8134C125.607 14.1994 126.717 13.7828 128.13 13.5635L131.153 13.1249V12.6644C131.153 12.0358 130.991 11.5607 130.667 11.2391C130.344 10.9175 129.829 10.7567 129.123 10.7567C128.637 10.7567 128.247 10.8444 127.953 11.0198C127.659 11.1953 127.416 11.378 127.225 11.568C127.048 11.7435 126.931 11.8604 126.872 11.9189C126.813 12.0943 126.703 12.182 126.541 12.182H124.82C124.687 12.182 124.569 12.1382 124.466 12.0504C124.378 11.9627 124.334 11.8458 124.334 11.6996C124.349 11.3341 124.525 10.9248 124.864 10.4716C125.217 10.0038 125.754 9.60182 126.475 9.26559C127.195 8.91474 128.086 8.73931 129.145 8.73931C130.881 8.73931 132.146 9.12671 132.94 9.9015C133.735 10.6763 134.132 11.6923 134.132 12.9495V19.8349C134.132 19.9811 134.08 20.1053 133.977 20.2077C133.889 20.31 133.764 20.3612 133.602 20.3612H131.771C131.624 20.3612 131.499 20.31 131.396 20.2077C131.293 20.1053 131.241 19.9811 131.241 19.8349V18.9797C130.917 19.4475 130.461 19.8349 129.873 20.1419C129.284 20.4343 128.549 20.5804 127.666 20.5804ZM128.417 18.4754C129.226 18.4754 129.888 18.2122 130.403 17.6859C130.917 17.1597 131.175 16.3995 131.175 15.4054V14.9669L128.968 15.3177C127.276 15.5809 126.43 16.1437 126.43 17.0062C126.43 17.474 126.622 17.8394 127.004 18.1026C127.401 18.3511 127.872 18.4754 128.417 18.4754Z" fill="#FDA403"/>
<path d="M139.456 20.5804C138.338 20.5804 137.404 20.4123 136.653 20.0761C135.903 19.7399 135.344 19.3525 134.976 18.9139C134.623 18.4607 134.447 18.0733 134.447 17.7517C134.447 17.6055 134.491 17.4886 134.579 17.4009C134.682 17.3132 134.8 17.2693 134.932 17.2693H136.742C136.859 17.2693 136.962 17.3278 137.051 17.4447C137.124 17.5032 137.286 17.6421 137.536 17.8614C137.801 18.0806 138.095 18.2561 138.419 18.3876C138.757 18.5046 139.125 18.5631 139.522 18.5631C140.111 18.5631 140.589 18.4534 140.956 18.2341C141.324 18.0002 141.508 17.6713 141.508 17.2474C141.508 16.955 141.42 16.7211 141.243 16.5457C141.082 16.3556 140.78 16.1875 140.339 16.0413C139.912 15.8805 139.265 15.7051 138.397 15.5151C137.146 15.2519 136.219 14.8499 135.616 14.309C135.028 13.7681 134.734 13.0518 134.734 12.1601C134.734 11.5753 134.91 11.0271 135.263 10.5155C135.616 9.98921 136.138 9.56527 136.83 9.24366C137.536 8.90743 138.375 8.73931 139.346 8.73931C140.346 8.73931 141.207 8.90012 141.927 9.22173C142.648 9.52872 143.193 9.9015 143.56 10.3401C143.943 10.7786 144.134 11.166 144.134 11.5022C144.134 11.6338 144.083 11.7508 143.98 11.8531C143.891 11.9408 143.781 11.9847 143.649 11.9847H141.994C141.832 11.9847 141.707 11.9262 141.618 11.8092C141.516 11.7361 141.346 11.6046 141.111 11.4145C140.89 11.2099 140.64 11.0491 140.361 10.9321C140.081 10.8152 139.743 10.7567 139.346 10.7567C138.801 10.7567 138.382 10.8736 138.088 11.1075C137.794 11.3414 137.646 11.6484 137.646 12.0285C137.646 12.2917 137.713 12.5109 137.845 12.6864C137.992 12.8618 138.279 13.0299 138.706 13.1907C139.132 13.3369 139.772 13.4904 140.625 13.6512C143.274 14.1628 144.598 15.3104 144.598 17.0939C144.598 18.1318 144.142 18.9724 143.229 19.6156C142.332 20.2588 141.074 20.5804 139.456 20.5804Z" fill="#FDA403"/>
<path d="M145.419 7.09471C145.271 7.09471 145.146 7.04355 145.043 6.94122C144.94 6.83889 144.889 6.71463 144.889 6.56844V4.9677C144.889 4.80689 144.94 4.67532 145.043 4.57299C145.146 4.47066 145.271 4.41949 145.419 4.41949H147.449C147.611 4.41949 147.743 4.47066 147.846 4.57299C147.949 4.67532 148 4.80689 148 4.9677V6.56844C148 6.71463 147.942 6.83889 147.824 6.94122C147.721 7.04355 147.596 7.09471 147.449 7.09471H145.419ZM145.507 20.3612C145.36 20.3612 145.235 20.31 145.132 20.2077C145.029 20.1053 144.977 19.9811 144.977 19.8349V9.48487C144.977 9.32406 145.029 9.1998 145.132 9.11209C145.235 9.00976 145.36 8.95859 145.507 8.95859H147.382C147.53 8.95859 147.655 9.00976 147.758 9.11209C147.861 9.21442 147.912 9.33868 147.912 9.48487V19.8349C147.912 19.9811 147.861 20.1053 147.758 20.2077C147.655 20.31 147.53 20.3612 147.382 20.3612H145.507Z" fill="#FDA403"/>
<path fill-rule="evenodd" clip-rule="evenodd" d="M19.4339 21.5066C17.07 26.1645 10.3843 26.1645 8.02038 21.5066L0.503959 6.69578C-1.05403 3.62584 1.18884 0 4.64584 0C6.39679 0 7.99861 0.980564 8.78772 2.53547L8.97873 2.91185C10.9475 6.79126 16.5145 6.79515 18.4888 2.9185L18.6889 2.52548C19.4779 0.97634 21.0753 0 22.821 0C26.2723 0 28.5114 3.61981 26.956 6.68466L19.4339 21.5066Z" fill="#FDA403"/>
</svg>
